{"title":"Dream.House.2011.TS.XViD-DTRG","uid":6746474,"size":756436980,"categoryP":"video","categoryS":"movies","magnet":"?xt=urn:btih:c39cef1242e300870c9bddaca638bf2f53445ca6&amp;dn=Dream.House.2011.TS.XViD-DTRG&amp;tr=udp%3A%2F%2Ftracker.openbittorrent.com%3A80&amp;tr=udp%3A%2F%2Fopen.demonii.com%3A1337&amp;tr=udp%3A%2F%2Ftracker.coppersurfer.tk%3A6969&amp;tr=udp%3A%2F%2Fexodus.desync.com%3A6969","seeders":1,"leechers":0,"uploader":".Dude.","files":-1,"time":1318710166,"description":"Format                           : AVI\nFormat/Info                      : Audio Video Interleave\nFile size                        : 721 MiB\nDuration                         : 1h 21mn\nOverall bit rate                 : 1 231 Kbps\nWriting library                  : VirtualDub build 32842/release\n\nVideo\nID                               : 0\nFormat                           : MPEG-4 Visual\nFormat profile                   : Advanced Simple@L5\nFormat settings, BVOP            : 2\nFormat settings, QPel            : No\nFormat settings, GMC             : No warppoints\nFormat settings, Matrix          : Default (H.263)\nMuxing mode                      : Packed bitstream\nCodec ID                         : XVID\nCodec ID/Hint                    : XviD\nDuration                         : 1h 21mn\nBit rate                         : 1 094 Kbps\nWidth                            : 624 pixels\nHeight                           : 262 pixels\nDisplay aspect ratio             : 2.40:1\nFrame rate                       : 25.000 fps\nColor space                      : YUV\nChroma subsampling               : 4:2:0\nBit depth                        : 8 bits\nScan type                        : Progressive\nCompression mode                 : Lossy\nBits/(Pixel*Frame)               : 0.268\nStream size                      : 641 MiB (89%)\nWriting library                  : XviD 64\n\nAudio\nID                               : 1\nFormat                           : MPEG Audio\nFormat version                   : Version 1\nFormat profile                   : Layer 3\nMode                             : Joint stereo\nMode extension                   : MS Stereo\nCodec ID                         : 55\nCodec ID/Hint                    : MP3\nDuration                         : 1h 21mn\nBit rate mode                    : Constant\nBit rate                         : 128 Kbps\nChannel(s)                       : 2 channels\nSampling rate                    : 44.1 KHz\nCompression mode                 : Lossy\nStream size                      : 75.0 MiB (10%)\nAlignment                        : Split accross interleaves\nInterleave, duration             : 40 ms (1.00 video frame)\nWriting library                  : LAME3.98r\nEncoding settings                : -m j -V 4 -q 2 -lowpass 17 -b 128\n\nScreens: &lt;a href=&quot;\nhttp://images.oneddl.com/images/prhl9297b0iotbg9qex.png&quot; rel=&quot;nofollow&quot; target=&quot;_NEW&quot;&gt;\nhttp://images.oneddl.com/images/prhl9297b0iotbg9qex.png&lt;/a&gt; &lt;a href=&quot;\nhttp://images.oneddl.com/images/jhpjh4gsx4m7wmqgy51o.png&quot; rel=&quot;nofollow&quot; target=&quot;_NEW&quot;&gt;\nhttp://images.oneddl.com/images/jhpjh4gsx4m7wmqgy51o.png&lt;/a&gt; &lt;a href=&quot;\nhttp://images.oneddl.com/images/xz9r6h7iouy5nxffp2f.png&quot; rel=&quot;nofollow&quot; target=&quot;_NEW&quot;&gt;\nhttp://images.oneddl.com/images/xz9r6h7iouy5nxffp2f.png&lt;/a&gt; &lt;a href=&quot;\nhttp://images.oneddl.com/images/9ujc9pzl5w8kofubwu4l.png&quot; rel=&quot;nofollow&quot; target=&quot;_NEW&quot;&gt;\nhttp://images.oneddl.com/images/9ujc9pzl5w8kofubwu4l.png&lt;/a&gt;\ncopy paste the links.\n\nSample: &lt;a href=&quot;\nhttp://www.uploadking.com/FES3MR9XI4&quot; rel=&quot;nofollow&quot; target=&quot;_NEW&quot;&gt;\nhttp://www.uploadking.com/FES3MR9XI4&lt;/a&gt;","torrent":{"xt":"urn:btih:c39cef1242e300870c9bddaca638bf2f53445ca6","amp;dn":"Dream.House.2011.TS.XViD-DTRG","amp;tr":["udp%3A%2F%2Ftracker.openbittorrent.com%3A80","udp%3A%2F%2Fopen.demonii.com%3A1337","udp%3A%2F%2Ftracker.coppersurfer.tk%3A6969","udp%3A%2F%2Fexodus.desync.com%3A6969"],"infoHash":"c39cef1242e300870c9bddaca638bf2f53445ca6","infoHashBuffer":{"type":"Buffer","data":[195,156,239,18,66,227,0,135,12,155,221,172,166,56,191,47,83,68,92,166]},"announce":[],"urlList":[]}}